<?xml version="1.0" encoding="UTF-8"?>
<!DOCTYPE svg PUBLIC "-//W3C//DTD SVG 1.1//EN" "http://www.w3.org/Graphics/SVG/1.1/DTD/svg11.dtd">

<svg version="1.1" viewBox="0 0 2044 2048" width="1280" height="1280" xmlns="http://www.w3.org/2000/svg">
  <path transform="translate(0)" d="m0 0h2044v2048h-2044z" fill="transparent" />
  <path transform="translate(346,1581)"
    d="m0 0h349l12 3 10 6 8 8 8 16 1 5v350l-5 15-6 9-9 8-10 5-7 2h-352l-13-4-10-7-7-7-6-12-2-12v-342l2-14 5-10 8-9 9-6 8-3z"
    fill="#379F47" />
  <path transform="translate(1369,44)"
    d="m0 0h351l13 4 11 7 7 9 5 10 2 9v351l-5 14-8 11-9 7-10 4-5 1h-350l-13-3-11-7-7-7-5-8-3-10v-358l4-11 7-9 8-7 10-5z"
    fill="#379F47" />
  <path transform="translate(856,44)"
    d="m0 0h352l13 4 8 5 8 8 7 14 1 3 1 268v86l-2 9-6 12-7 8-10 6-7 3-6 1h-347l-12-2-10-5-10-9-7-11-2-7v-360l5-12 8-10 11-7 7-3z"
    fill="#379F47" />
  <path transform="translate(858,1581)"
    d="m0 0h349l12 3 10 6 8 8 5 9 3 7 1 275v78l-2 11-6 12-6 7-11 7-12 4h-352l-10-3-12-7-7-7-5-8-3-9v-360l4-10 8-11 10-7 9-4z"
    fill="#379F47" />
  <path transform="translate(343,1069)"
    d="m0 0h354l13 4 9 6 7 8 5 10 2 6 1 10v342l-3 12-6 12-8 8-14 7-3 1h-358l-13-5-9-7-7-8-4-9-2-12v-344l2-12 5-10 9-10 12-7z"
    fill="#379F47" />
  <path transform="translate(342,557)"
    d="m0 0h356l13 4 9 7 6 7 5 10 2 6 1 11v341l-4 14-5 9-6 7-10 6-10 4h-356l-14-5-10-8-8-11-3-9-1-7v-345l2-12 4-9 6-8 8-6 8-4z"
    fill="#379F47" />
  <path transform="translate(1368,1069)"
    d="m0 0h352l11 3 8 4 10 9 7 13 2 10v351l-4 11-6 10-7 7-8 5-10 3h-356l-10-3-10-6-8-9-6-12-1-4v-358l4-11 6-9 8-7 13-6z"
    fill="#379F47" />
  <path transform="translate(854,557)"
    d="m0 0h357l11 4 9 6 8 9 5 10 1 4 1 263v92l-2 9-6 11-8 9-12 7-6 2h-357l-11-4-11-7-8-10-4-9-1-5v-359l5-12 9-10 9-6z"
    fill="#379F47" />
  <path transform="translate(855,1069)"
    d="m0 0h354l13 4 9 6 7 8 6 12 1 4 1 262v91l-3 12-6 11-8 8-8 5-10 3h-357l-11-4-9-6-8-9-5-11-1-3v-360l4-11 7-9 10-8z"
    fill="#379F47" />
  <path transform="translate(503,23)"
    d="m0 0h38l27 4 26 7 21 8 20 10 19 12 13 10 13 11 18 18 11 14 7 10 11 18 11 23 7 19 6 26 3 18 1 13v25l-2 20-4 23-6 21-6 16-11 23-12 19-12 16-11 12-17 17-14 11-15 10-22 12-21 9-18 6-22 5-21 3-24 1-25-2-22-4-23-6-21-8-22-11-17-11-16-12-12-11-16-16-11-14-14-21-9-16-10-24-7-24-5-27-1-11v-38l4-26 5-20 8-23 10-21 10-17 10-14 7-9 12-13 13-13 11-9 15-11 15-9 16-8 25-10 26-7 19-3z"
    fill="#C71B1F" />
</svg>
